<mxfile host="app.diagrams.net" modified="2023-05-19T10:30:18.352Z" agent="Mozilla/5.0 (Macintosh; Intel Mac OS X 10_15_7) AppleWebKit/537.36 (KHTML, like Gecko) Chrome/113.0.0.0 Safari/537.36" etag="gT1roK916mUEKy6_Ea03" version="21.3.2" type="device">
  <diagram name="Page-1" id="iW9HpgrgspjeNjqDA-Ny">
    <mxGraphModel dx="2911" dy="2049" grid="1" gridSize="10" guides="1" tooltips="1" connect="1" arrows="1" fold="1" page="1" pageScale="1" pageWidth="1654" pageHeight="2336" math="0" shadow="0">
      <root>
        <mxCell id="0" />
        <mxCell id="1" parent="0" />
        <mxCell id="l-1ZIi7Bs2jwUkgEGIXl-24" value="" style="group" parent="1" vertex="1" connectable="0">
          <mxGeometry x="760" y="1700" width="360" height="290" as="geometry" />
        </mxCell>
        <mxCell id="l-1ZIi7Bs2jwUkgEGIXl-22" value="package" style="shape=folder;fontStyle=1;spacingTop=10;tabWidth=80;tabHeight=20;tabPosition=left;html=1;whiteSpace=wrap;" parent="l-1ZIi7Bs2jwUkgEGIXl-24" vertex="1">
          <mxGeometry x="22.499999999999996" y="10" width="337.49999999999994" height="280" as="geometry" />
        </mxCell>
        <mxCell id="l-1ZIi7Bs2jwUkgEGIXl-23" value="&lt;font style=&quot;font-size: 8px;&quot;&gt;background.js&lt;/font&gt;" style="text;strokeColor=none;align=center;fillColor=none;html=1;verticalAlign=middle;whiteSpace=wrap;rounded=0;" parent="l-1ZIi7Bs2jwUkgEGIXl-24" vertex="1">
          <mxGeometry width="135" height="30" as="geometry" />
        </mxCell>
        <mxCell id="l-1ZIi7Bs2jwUkgEGIXl-6" value="&lt;p style=&quot;margin:0px;margin-top:4px;text-align:center;&quot;&gt;&lt;b&gt;Class: Stars&lt;/b&gt;&lt;/p&gt;&lt;hr size=&quot;1&quot;&gt;&lt;p style=&quot;margin:0px;margin-left:4px;&quot;&gt;+ width: number&lt;/p&gt;&lt;p style=&quot;margin:0px;margin-left:4px;&quot;&gt;+ height: number&lt;/p&gt;&lt;p style=&quot;margin:0px;margin-left:4px;&quot;&gt;+ numStars: number&lt;/p&gt;&lt;p style=&quot;margin:0px;margin-left:4px;&quot;&gt;+ maxRadius: number&lt;/p&gt;&lt;p style=&quot;margin:0px;margin-left:4px;&quot;&gt;+ stars: Object[]&lt;/p&gt;&lt;p style=&quot;margin:0px;margin-left:4px;&quot;&gt;+ velocity: number&lt;/p&gt;&lt;p style=&quot;margin:0px;margin-left:4px;&quot;&gt;+ relativeVelocity: number&lt;/p&gt;&lt;hr size=&quot;1&quot;&gt;&lt;p style=&quot;margin:0px;margin-left:4px;&quot;&gt;+ constructor(width: number, height: number)&lt;/p&gt;&lt;p style=&quot;margin:0px;margin-left:4px;&quot;&gt;+ generateStars()&lt;/p&gt;&lt;p style=&quot;margin:0px;margin-left:4px;&quot;&gt;+ moveStars()&lt;/p&gt;&lt;p style=&quot;margin:0px;margin-left:4px;&quot;&gt;+ drawStars()&lt;/p&gt;&lt;p style=&quot;margin:0px;margin-left:4px;&quot;&gt;+ changeDimension(w: number, h: number)&lt;/p&gt;&lt;p style=&quot;margin:0px;margin-left:4px;&quot;&gt;+ changeVelocity(v: number)&lt;/p&gt;" style="verticalAlign=top;align=left;overflow=fill;fontSize=12;fontFamily=Helvetica;html=1;whiteSpace=wrap;" parent="l-1ZIi7Bs2jwUkgEGIXl-24" vertex="1">
          <mxGeometry x="33.75" y="40" width="314.99999999999994" height="240" as="geometry" />
        </mxCell>
        <mxCell id="l-1ZIi7Bs2jwUkgEGIXl-25" value="" style="group" parent="1" vertex="1" connectable="0">
          <mxGeometry x="650" y="774" width="990" height="880" as="geometry" />
        </mxCell>
        <mxCell id="l-1ZIi7Bs2jwUkgEGIXl-20" value="" style="shape=folder;fontStyle=1;spacingTop=10;tabWidth=80;tabHeight=20;tabPosition=left;html=1;whiteSpace=wrap;" parent="l-1ZIi7Bs2jwUkgEGIXl-25" vertex="1">
          <mxGeometry x="20" y="10" width="950" height="780" as="geometry" />
        </mxCell>
        <mxCell id="l-1ZIi7Bs2jwUkgEGIXl-21" value="&lt;font style=&quot;font-size: 8px;&quot;&gt;asteroid.js&lt;/font&gt;" style="text;strokeColor=none;align=center;fillColor=none;html=1;verticalAlign=middle;whiteSpace=wrap;rounded=0;" parent="l-1ZIi7Bs2jwUkgEGIXl-25" vertex="1">
          <mxGeometry width="120" height="30" as="geometry" />
        </mxCell>
        <mxCell id="l-1ZIi7Bs2jwUkgEGIXl-7" value="&lt;p style=&quot;margin:0px;margin-top:4px;text-align:center;&quot;&gt;&lt;b&gt;Class: Asteroid&lt;/b&gt;&lt;/p&gt;&lt;hr size=&quot;1&quot;&gt;&lt;p style=&quot;margin:0px;margin-left:4px;&quot;&gt;+ x: number&lt;br&gt;&lt;/p&gt;&lt;p style=&quot;margin:0px;margin-left:4px;&quot;&gt;+ y: number&lt;/p&gt;&lt;p style=&quot;margin:0px;margin-left:4px;&quot;&gt;+ windowWidth: number&lt;/p&gt;&lt;p style=&quot;margin:0px;margin-left:4px;&quot;&gt;+ windowHeight: number&lt;/p&gt;&lt;p style=&quot;margin:0px;margin-left:4px;&quot;&gt;+ diameter: number&lt;/p&gt;&lt;p style=&quot;margin:0px;margin-left:4px;&quot;&gt;+ score: number&lt;/p&gt;&lt;p style=&quot;margin:0px;margin-left:4px;&quot;&gt;+ maxVelocity: number&lt;/p&gt;&lt;p style=&quot;margin:0px;margin-left:4px;&quot;&gt;+ velocity: number&lt;/p&gt;&lt;p style=&quot;margin:0px;margin-left:4px;&quot;&gt;+ color: string&lt;/p&gt;&lt;p style=&quot;margin:0px;margin-left:4px;&quot;&gt;+ hit: boolean&lt;/p&gt;&lt;p style=&quot;margin:0px;margin-left:4px;&quot;&gt;+ explosionSound: .wav file&lt;/p&gt;&lt;p style=&quot;margin:0px;margin-left:4px;&quot;&gt;+ img: .png file&lt;/p&gt;&lt;hr size=&quot;1&quot;&gt;&lt;p style=&quot;margin:0px;margin-left:4px;&quot;&gt;+ constructor(x: number, y: number, w: number, h: number)&lt;/p&gt;&lt;p style=&quot;margin:0px;margin-left:4px;&quot;&gt;+ draw()&lt;/p&gt;&lt;p style=&quot;margin:0px;margin-left:4px;&quot;&gt;+ move()&lt;/p&gt;&lt;p style=&quot;margin:0px;margin-left:4px;&quot;&gt;+ changeVelocity(delta: number)&lt;/p&gt;&lt;p style=&quot;margin:0px;margin-left:4px;&quot;&gt;+ restartPosition()&lt;/p&gt;&lt;p style=&quot;margin:0px;margin-left:4px;&quot;&gt;+ isHit(x: number, y: number, w: number, h: number): boolean&lt;/p&gt;&lt;p style=&quot;margin:0px;margin-left:4px;&quot;&gt;+ changeDimension(w: number, h: number)&lt;/p&gt;&lt;p style=&quot;margin:0px;margin-left:4px;&quot;&gt;+ update(src: string, ...other)&lt;/p&gt;" style="verticalAlign=top;align=left;overflow=fill;fontSize=12;fontFamily=Helvetica;html=1;whiteSpace=wrap;" parent="l-1ZIi7Bs2jwUkgEGIXl-25" vertex="1">
          <mxGeometry x="30" y="40" width="350" height="360" as="geometry" />
        </mxCell>
        <mxCell id="l-1ZIi7Bs2jwUkgEGIXl-8" value="&lt;p style=&quot;margin:0px;margin-top:4px;text-align:center;&quot;&gt;&lt;b&gt;Class: Lives&lt;/b&gt;&lt;/p&gt;&lt;hr size=&quot;1&quot;&gt;&lt;p style=&quot;margin:0px;margin-left:4px;&quot;&gt;+ diameter: number&lt;br&gt;&lt;/p&gt;&lt;p style=&quot;margin:0px;margin-left:4px;&quot;&gt;+ color: string&lt;/p&gt;&lt;hr size=&quot;1&quot;&gt;+ constructor(x: number, y: number, w: number, h: number)&lt;p style=&quot;margin:0px;margin-left:4px;&quot;&gt;+ draw()&lt;br&gt;&lt;/p&gt;&lt;p style=&quot;margin:0px;margin-left:4px;&quot;&gt;&lt;span style=&quot;background-color: initial;&quot;&gt;+ restartPosition()&lt;/span&gt;&lt;/p&gt;&lt;p style=&quot;margin:0px;margin-left:4px;&quot;&gt;&lt;span style=&quot;background-color: initial;&quot;&gt;+ update(src: string, ...other)&lt;/span&gt;&lt;/p&gt;" style="verticalAlign=top;align=left;overflow=fill;fontSize=12;fontFamily=Helvetica;html=1;whiteSpace=wrap;" parent="l-1ZIi7Bs2jwUkgEGIXl-25" vertex="1">
          <mxGeometry x="30" y="410" width="350" height="140" as="geometry" />
        </mxCell>
        <mxCell id="l-1ZIi7Bs2jwUkgEGIXl-12" value="&lt;p style=&quot;margin:0px;margin-top:4px;text-align:center;&quot;&gt;&lt;b&gt;Class: Astronaut&lt;/b&gt;&lt;/p&gt;&lt;hr size=&quot;1&quot;&gt;&lt;p style=&quot;margin:0px;margin-left:4px;&quot;&gt;+&amp;nbsp;width: number&lt;br&gt;&lt;/p&gt;&lt;p style=&quot;margin: 0px 0px 0px 4px;&quot;&gt;+ height: number&lt;/p&gt;&lt;p style=&quot;margin: 0px 0px 0px 4px;&quot;&gt;+ img: .png file&lt;/p&gt;&lt;p style=&quot;margin: 0px 0px 0px 4px;&quot;&gt;+ scream: .wav file&lt;/p&gt;&lt;p style=&quot;margin: 0px 0px 0px 4px;&quot;&gt;+ angle: number&lt;/p&gt;&lt;p style=&quot;margin: 0px 0px 0px 4px;&quot;&gt;+ score: number&lt;/p&gt;&lt;hr size=&quot;1&quot;&gt;&amp;nbsp;+ constructor(x: number, y: number, w: number, h: number)&lt;p style=&quot;margin: 0px 0px 0px 4px;&quot;&gt;+ draw()&lt;/p&gt;&lt;p style=&quot;margin: 0px 0px 0px 4px;&quot;&gt;+ move()&lt;/p&gt;&lt;p style=&quot;margin: 0px 0px 0px 4px;&quot;&gt;+ isHit(x: number, y: number, w: number, h: number): boolean&lt;/p&gt;&lt;p style=&quot;margin: 0px 0px 0px 4px;&quot;&gt;+ restartPosition()&lt;br&gt;&lt;/p&gt;&lt;p style=&quot;margin: 0px 0px 0px 4px;&quot;&gt;+ update(src: string, ...other)&lt;/p&gt;" style="verticalAlign=top;align=left;overflow=fill;fontSize=12;fontFamily=Helvetica;html=1;whiteSpace=wrap;" parent="l-1ZIi7Bs2jwUkgEGIXl-25" vertex="1">
          <mxGeometry x="30" y="560" width="350" height="220" as="geometry" />
        </mxCell>
        <mxCell id="l-1ZIi7Bs2jwUkgEGIXl-13" value="&lt;p style=&quot;margin:0px;margin-top:4px;text-align:center;&quot;&gt;&lt;b&gt;Class: SpaceObjectFactory&lt;/b&gt;&lt;/p&gt;&lt;hr size=&quot;1&quot;&gt;&lt;p style=&quot;margin:0px;margin-left:4px;&quot;&gt;+ createAsteroid(w: number, h: number): Object&lt;/p&gt;&lt;p style=&quot;margin:0px;margin-left:4px;&quot;&gt;&lt;span style=&quot;background-color: initial;&quot;&gt;+ createLive(w: number, h: number): Object&lt;/span&gt;&lt;br&gt;&lt;/p&gt;&lt;p style=&quot;margin:0px;margin-left:4px;&quot;&gt;+ createAstronaut(w: number, h: number): Object&lt;span style=&quot;background-color: initial;&quot;&gt;&lt;br&gt;&lt;/span&gt;&lt;/p&gt;" style="verticalAlign=top;align=left;overflow=fill;fontSize=12;fontFamily=Helvetica;html=1;whiteSpace=wrap;" parent="l-1ZIi7Bs2jwUkgEGIXl-25" vertex="1">
          <mxGeometry x="610" y="136" width="350" height="80" as="geometry" />
        </mxCell>
        <mxCell id="l-1ZIi7Bs2jwUkgEGIXl-57" value="Extends" style="endArrow=block;endSize=16;endFill=0;html=1;rounded=0;entryX=0.996;entryY=0.635;entryDx=0;entryDy=0;edgeStyle=entityRelationEdgeStyle;entryPerimeter=0;" parent="l-1ZIi7Bs2jwUkgEGIXl-25" source="l-1ZIi7Bs2jwUkgEGIXl-8" target="l-1ZIi7Bs2jwUkgEGIXl-7" edge="1">
          <mxGeometry width="160" relative="1" as="geometry">
            <mxPoint x="400" y="520.23" as="sourcePoint" />
            <mxPoint x="960" y="506" as="targetPoint" />
          </mxGeometry>
        </mxCell>
        <mxCell id="l-1ZIi7Bs2jwUkgEGIXl-58" value="Extends" style="endArrow=block;endSize=16;endFill=0;html=1;rounded=0;edgeStyle=orthogonalEdgeStyle;" parent="l-1ZIi7Bs2jwUkgEGIXl-25" source="l-1ZIi7Bs2jwUkgEGIXl-12" target="l-1ZIi7Bs2jwUkgEGIXl-7" edge="1">
          <mxGeometry width="160" relative="1" as="geometry">
            <mxPoint x="390" y="490" as="sourcePoint" />
            <mxPoint x="389" y="279" as="targetPoint" />
            <Array as="points">
              <mxPoint x="550" y="670" />
              <mxPoint x="550" y="420" />
              <mxPoint x="460" y="420" />
              <mxPoint x="460" y="326" />
            </Array>
          </mxGeometry>
        </mxCell>
        <mxCell id="l-1ZIi7Bs2jwUkgEGIXl-59" value="Use" style="endArrow=open;endSize=12;dashed=1;html=1;rounded=0;" parent="l-1ZIi7Bs2jwUkgEGIXl-25" source="l-1ZIi7Bs2jwUkgEGIXl-13" target="l-1ZIi7Bs2jwUkgEGIXl-7" edge="1">
          <mxGeometry width="160" relative="1" as="geometry">
            <mxPoint x="470" y="356" as="sourcePoint" />
            <mxPoint x="630" y="356" as="targetPoint" />
          </mxGeometry>
        </mxCell>
        <mxCell id="l-1ZIi7Bs2jwUkgEGIXl-60" value="Use" style="endArrow=open;endSize=12;dashed=1;html=1;rounded=0;entryX=1;entryY=0.75;entryDx=0;entryDy=0;exitX=0.25;exitY=1;exitDx=0;exitDy=0;" parent="l-1ZIi7Bs2jwUkgEGIXl-25" source="l-1ZIi7Bs2jwUkgEGIXl-13" target="l-1ZIi7Bs2jwUkgEGIXl-8" edge="1">
          <mxGeometry width="160" relative="1" as="geometry">
            <mxPoint x="620" y="199" as="sourcePoint" />
            <mxPoint x="390" y="217" as="targetPoint" />
          </mxGeometry>
        </mxCell>
        <mxCell id="l-1ZIi7Bs2jwUkgEGIXl-61" value="Use" style="endArrow=open;endSize=12;dashed=1;html=1;rounded=0;entryX=1;entryY=0.75;entryDx=0;entryDy=0;exitX=0.5;exitY=1;exitDx=0;exitDy=0;" parent="l-1ZIi7Bs2jwUkgEGIXl-25" source="l-1ZIi7Bs2jwUkgEGIXl-13" edge="1">
          <mxGeometry width="160" relative="1" as="geometry">
            <mxPoint x="698" y="456" as="sourcePoint" />
            <mxPoint x="380" y="755" as="targetPoint" />
            <Array as="points">
              <mxPoint x="760" y="636" />
            </Array>
          </mxGeometry>
        </mxCell>
        <mxCell id="l-1ZIi7Bs2jwUkgEGIXl-26" value="" style="group" parent="1" vertex="1" connectable="0">
          <mxGeometry x="380" y="1700" width="360" height="420" as="geometry" />
        </mxCell>
        <mxCell id="l-1ZIi7Bs2jwUkgEGIXl-18" value="package" style="shape=folder;fontStyle=1;spacingTop=10;tabWidth=80;tabHeight=20;tabPosition=left;html=1;whiteSpace=wrap;" parent="l-1ZIi7Bs2jwUkgEGIXl-26" vertex="1">
          <mxGeometry x="20" y="10" width="340" height="410" as="geometry" />
        </mxCell>
        <mxCell id="l-1ZIi7Bs2jwUkgEGIXl-19" value="&lt;font style=&quot;font-size: 8px;&quot;&gt;rocket.js&lt;/font&gt;" style="text;strokeColor=none;align=center;fillColor=none;html=1;verticalAlign=middle;whiteSpace=wrap;rounded=0;" parent="l-1ZIi7Bs2jwUkgEGIXl-26" vertex="1">
          <mxGeometry width="120" height="30" as="geometry" />
        </mxCell>
        <mxCell id="l-1ZIi7Bs2jwUkgEGIXl-5" value="&lt;p style=&quot;margin:0px;margin-top:4px;text-align:center;&quot;&gt;&lt;b&gt;Class: Rocket&lt;/b&gt;&lt;/p&gt;&lt;hr size=&quot;1&quot;&gt;&lt;p style=&quot;margin:0px;margin-left:4px;&quot;&gt;+ x: number&lt;br&gt;&lt;/p&gt;&lt;p style=&quot;margin:0px;margin-left:4px;&quot;&gt;+ y: number&lt;/p&gt;&lt;p style=&quot;margin:0px;margin-left:4px;&quot;&gt;+ windowWidth: number&lt;/p&gt;&lt;p style=&quot;margin:0px;margin-left:4px;&quot;&gt;+ windowHeight: number&lt;/p&gt;&lt;p style=&quot;margin:0px;margin-left:4px;&quot;&gt;+ width: number&lt;/p&gt;&lt;p style=&quot;margin:0px;margin-left:4px;&quot;&gt;+ height: number&lt;/p&gt;&lt;p style=&quot;margin:0px;margin-left:4px;&quot;&gt;+ bullet: Object&lt;/p&gt;&lt;p style=&quot;margin:0px;margin-left:4px;&quot;&gt;+ laserShot: .wav file&lt;/p&gt;&lt;p style=&quot;margin:0px;margin-left:4px;&quot;&gt;+ cooldownPeriod: number&lt;/p&gt;&lt;p style=&quot;margin:0px;margin-left:4px;&quot;&gt;+ cooldownDone: boolean&lt;/p&gt;&lt;hr size=&quot;1&quot;&gt;&lt;p style=&quot;margin:0px;margin-left:4px;&quot;&gt;+ constructor(x: number, y: number, w: number, h: number)&lt;/p&gt;&lt;p style=&quot;margin:0px;margin-left:4px;&quot;&gt;+ draw()&lt;/p&gt;&lt;p style=&quot;margin:0px;margin-left:4px;&quot;&gt;&lt;span style=&quot;background-color: initial;&quot;&gt;+ changeY(y: number)&lt;br&gt;&lt;/span&gt;&lt;/p&gt;&lt;p style=&quot;margin:0px;margin-left:4px;&quot;&gt;&lt;span style=&quot;background-color: initial;&quot;&gt;+ changeX(x: number)&lt;/span&gt;&lt;/p&gt;&lt;p style=&quot;margin:0px;margin-left:4px;&quot;&gt;&lt;span style=&quot;background-color: initial;&quot;&gt;+ getWidth(): number&lt;/span&gt;&lt;/p&gt;&lt;p style=&quot;margin:0px;margin-left:4px;&quot;&gt;&lt;span style=&quot;background-color: initial;&quot;&gt;+ getHeight(): number&lt;/span&gt;&lt;/p&gt;&lt;p style=&quot;margin:0px;margin-left:4px;&quot;&gt;&lt;span style=&quot;background-color: initial;&quot;&gt;+ fire()&lt;/span&gt;&lt;/p&gt;&lt;p style=&quot;margin:0px;margin-left:4px;&quot;&gt;&lt;span style=&quot;background-color: initial;&quot;&gt;+ bulletIsFire(): boolean&lt;/span&gt;&lt;/p&gt;&lt;p style=&quot;margin:0px;margin-left:4px;&quot;&gt;&lt;span style=&quot;background-color: initial;&quot;&gt;+ drawBullet()&lt;/span&gt;&lt;/p&gt;&lt;p style=&quot;margin:0px;margin-left:4px;&quot;&gt;&lt;span style=&quot;background-color: initial;&quot;&gt;+ moveBullet()&lt;/span&gt;&lt;/p&gt;&lt;p style=&quot;margin:0px;margin-left:4px;&quot;&gt;&lt;span style=&quot;background-color: initial;&quot;&gt;+ changeDimension(w: number, h: number)&lt;/span&gt;&lt;/p&gt;&lt;p style=&quot;margin:0px;margin-left:4px;&quot;&gt;&lt;span style=&quot;background-color: initial;&quot;&gt;+ update(src: string, ...other)&amp;nbsp;&lt;/span&gt;&lt;/p&gt;" style="verticalAlign=top;align=left;overflow=fill;fontSize=12;fontFamily=Helvetica;html=1;whiteSpace=wrap;" parent="l-1ZIi7Bs2jwUkgEGIXl-26" vertex="1">
          <mxGeometry x="30" y="40" width="320" height="370" as="geometry" />
        </mxCell>
        <mxCell id="l-1ZIi7Bs2jwUkgEGIXl-27" value="" style="group" parent="1" vertex="1" connectable="0">
          <mxGeometry x="10" y="1700" width="330" height="360" as="geometry" />
        </mxCell>
        <mxCell id="l-1ZIi7Bs2jwUkgEGIXl-16" value="package" style="shape=folder;fontStyle=1;spacingTop=10;tabWidth=80;tabHeight=20;tabPosition=left;html=1;whiteSpace=wrap;" parent="l-1ZIi7Bs2jwUkgEGIXl-27" vertex="1">
          <mxGeometry x="30" y="10" width="300" height="350" as="geometry" />
        </mxCell>
        <mxCell id="l-1ZIi7Bs2jwUkgEGIXl-17" value="&lt;font style=&quot;font-size: 8px;&quot;&gt;scoreboard.js&lt;/font&gt;" style="text;strokeColor=none;align=center;fillColor=none;html=1;verticalAlign=middle;whiteSpace=wrap;rounded=0;" parent="l-1ZIi7Bs2jwUkgEGIXl-27" vertex="1">
          <mxGeometry width="120" height="30" as="geometry" />
        </mxCell>
        <mxCell id="l-1ZIi7Bs2jwUkgEGIXl-4" value="&lt;p style=&quot;margin:0px;margin-top:4px;text-align:center;&quot;&gt;&lt;b&gt;Class: ScoreDisplay&lt;/b&gt;&lt;/p&gt;&lt;hr size=&quot;1&quot;&gt;&lt;p style=&quot;margin:0px;margin-left:4px;&quot;&gt;+ maxLive: number&lt;/p&gt;&lt;p style=&quot;margin:0px;margin-left:4px;&quot;&gt;+ live: number&lt;/p&gt;&lt;p style=&quot;margin:0px;margin-left:4px;&quot;&gt;+ score: number&lt;/p&gt;&lt;p style=&quot;margin:0px;margin-left:4px;&quot;&gt;+ windowWidth: number&lt;/p&gt;&lt;p style=&quot;margin:0px;margin-left:4px;&quot;&gt;+ windowHeight: number&lt;/p&gt;&lt;p style=&quot;margin:0px;margin-left:4px;&quot;&gt;+ BORDER: number&lt;/p&gt;&lt;p style=&quot;margin:0px;margin-left:4px;&quot;&gt;+ fontSize: number&lt;/p&gt;&lt;p style=&quot;margin:0px;margin-left:4px;&quot;&gt;+ font: .otl file&lt;/p&gt;&lt;p style=&quot;margin:0px;margin-left:4px;&quot;&gt;+ livesDiameter: number&lt;/p&gt;&lt;p style=&quot;margin:0px;margin-left:4px;&quot;&gt;+ stage: number&lt;/p&gt;&lt;hr size=&quot;1&quot;&gt;&lt;p style=&quot;margin:0px;margin-left:4px;&quot;&gt;+ constructor(font: .otl file)&lt;/p&gt;&lt;p style=&quot;margin:0px;margin-left:4px;&quot;&gt;+ draw()&lt;/p&gt;&lt;p style=&quot;margin:0px;margin-left:4px;&quot;&gt;&lt;span style=&quot;background-color: initial;&quot;&gt;+ reduceLive()&lt;/span&gt;&lt;/p&gt;&lt;p style=&quot;margin:0px;margin-left:4px;&quot;&gt;+ getLive(): number&lt;/p&gt;&lt;p style=&quot;margin:0px;margin-left:4px;&quot;&gt;+ addScore(score: number)&lt;/p&gt;&lt;p style=&quot;margin:0px;margin-left:4px;&quot;&gt;+ getScore(): number&lt;/p&gt;&lt;p style=&quot;margin:0px;margin-left:4px;&quot;&gt;+ update(src: string, ...others)&lt;/p&gt;&lt;p style=&quot;margin:0px;margin-left:4px;&quot;&gt;+ changeDimension(w: number, h: number)&lt;/p&gt;" style="verticalAlign=top;align=left;overflow=fill;fontSize=12;fontFamily=Helvetica;html=1;whiteSpace=wrap;" parent="l-1ZIi7Bs2jwUkgEGIXl-27" vertex="1">
          <mxGeometry x="40" y="40" width="280" height="310" as="geometry" />
        </mxCell>
        <mxCell id="l-1ZIi7Bs2jwUkgEGIXl-28" value="" style="group" parent="1" vertex="1" connectable="0">
          <mxGeometry x="20" y="890" width="330" height="330" as="geometry" />
        </mxCell>
        <mxCell id="l-1ZIi7Bs2jwUkgEGIXl-14" value="package" style="shape=folder;fontStyle=1;spacingTop=10;tabWidth=40;tabHeight=14;tabPosition=left;html=1;whiteSpace=wrap;" parent="l-1ZIi7Bs2jwUkgEGIXl-28" vertex="1">
          <mxGeometry x="10" y="10" width="320" height="320" as="geometry" />
        </mxCell>
        <mxCell id="l-1ZIi7Bs2jwUkgEGIXl-2" value="&lt;p style=&quot;margin:0px;margin-top:4px;text-align:center;&quot;&gt;&lt;b&gt;Class: Subject&lt;/b&gt;&lt;/p&gt;&lt;hr size=&quot;1&quot;&gt;&lt;p style=&quot;margin:0px;margin-left:4px;&quot;&gt;+ observers: Objects[]&lt;/p&gt;&lt;hr size=&quot;1&quot;&gt;&lt;p style=&quot;margin:0px;margin-left:4px;&quot;&gt;+ constructor()&lt;/p&gt;&lt;p style=&quot;margin:0px;margin-left:4px;&quot;&gt;+ subscribe(observers: Object)&lt;/p&gt;&lt;p style=&quot;margin:0px;margin-left:4px;&quot;&gt;+ unsubscribe(observers: Object)&lt;/p&gt;&lt;p style=&quot;margin:0px;margin-left:4px;&quot;&gt;+ unsubscribeAll()&lt;/p&gt;&lt;p style=&quot;margin:0px;margin-left:4px;&quot;&gt;&lt;br&gt;&lt;/p&gt;&lt;p style=&quot;margin:0px;margin-left:4px;&quot;&gt;+ notifySubscriber(source: string, ...others)&lt;/p&gt;" style="verticalAlign=top;align=left;overflow=fill;fontSize=12;fontFamily=Helvetica;html=1;whiteSpace=wrap;" parent="l-1ZIi7Bs2jwUkgEGIXl-28" vertex="1">
          <mxGeometry x="30" y="40" width="280" height="180" as="geometry" />
        </mxCell>
        <mxCell id="l-1ZIi7Bs2jwUkgEGIXl-3" value="&lt;p style=&quot;margin:0px;margin-top:4px;text-align:center;&quot;&gt;&lt;b&gt;Interface: Observer&lt;/b&gt;&lt;/p&gt;&lt;hr size=&quot;1&quot;&gt;&lt;p style=&quot;margin:0px;margin-left:4px;&quot;&gt;+ update(source: string, ...others)&lt;/p&gt;" style="verticalAlign=top;align=left;overflow=fill;fontSize=12;fontFamily=Helvetica;html=1;whiteSpace=wrap;" parent="l-1ZIi7Bs2jwUkgEGIXl-28" vertex="1">
          <mxGeometry x="30" y="250" width="280" height="60" as="geometry" />
        </mxCell>
        <mxCell id="l-1ZIi7Bs2jwUkgEGIXl-15" value="&lt;font style=&quot;font-size: 8px;&quot;&gt;Subject.js&lt;/font&gt;" style="text;strokeColor=none;align=center;fillColor=none;html=1;verticalAlign=middle;whiteSpace=wrap;rounded=0;" parent="l-1ZIi7Bs2jwUkgEGIXl-28" vertex="1">
          <mxGeometry width="60" height="30" as="geometry" />
        </mxCell>
        <mxCell id="l-1ZIi7Bs2jwUkgEGIXl-29" value="client" style="shape=folder;fontStyle=1;spacingTop=10;tabWidth=80;tabHeight=20;tabPosition=left;html=1;whiteSpace=wrap;" parent="1" vertex="1">
          <mxGeometry x="1280" y="25" width="240" height="205" as="geometry" />
        </mxCell>
        <mxCell id="l-1ZIi7Bs2jwUkgEGIXl-34" value="&lt;font style=&quot;font-size: 8px;&quot;&gt;gun-control.js&lt;/font&gt;" style="text;strokeColor=none;align=center;fillColor=none;html=1;verticalAlign=middle;whiteSpace=wrap;rounded=0;" parent="1" vertex="1">
          <mxGeometry x="1260" y="20" width="120" height="30" as="geometry" />
        </mxCell>
        <mxCell id="l-1ZIi7Bs2jwUkgEGIXl-35" value="client" style="shape=folder;fontStyle=1;spacingTop=10;tabWidth=80;tabHeight=20;tabPosition=left;html=1;whiteSpace=wrap;" parent="1" vertex="1">
          <mxGeometry x="1280" y="245" width="240" height="205" as="geometry" />
        </mxCell>
        <mxCell id="l-1ZIi7Bs2jwUkgEGIXl-36" value="&lt;font style=&quot;font-size: 8px;&quot;&gt;trajectory-control.js&lt;/font&gt;" style="text;strokeColor=none;align=center;fillColor=none;html=1;verticalAlign=middle;whiteSpace=wrap;rounded=0;" parent="1" vertex="1">
          <mxGeometry x="1260" y="240" width="120" height="30" as="geometry" />
        </mxCell>
        <mxCell id="l-1ZIi7Bs2jwUkgEGIXl-37" value="client" style="shape=folder;fontStyle=1;spacingTop=10;tabWidth=80;tabHeight=20;tabPosition=left;html=1;whiteSpace=wrap;" parent="1" vertex="1">
          <mxGeometry x="1280" y="475" width="240" height="205" as="geometry" />
        </mxCell>
        <mxCell id="l-1ZIi7Bs2jwUkgEGIXl-38" value="&lt;font style=&quot;font-size: 8px;&quot;&gt;acceleration.js&lt;/font&gt;" style="text;strokeColor=none;align=center;fillColor=none;html=1;verticalAlign=middle;whiteSpace=wrap;rounded=0;" parent="1" vertex="1">
          <mxGeometry x="1260" y="470" width="120" height="30" as="geometry" />
        </mxCell>
        <mxCell id="l-1ZIi7Bs2jwUkgEGIXl-43" value="" style="group" parent="1" vertex="1" connectable="0">
          <mxGeometry x="280" y="470" width="260" height="210" as="geometry" />
        </mxCell>
        <mxCell id="l-1ZIi7Bs2jwUkgEGIXl-41" value="client" style="shape=folder;fontStyle=1;spacingTop=10;tabWidth=80;tabHeight=20;tabPosition=left;html=1;whiteSpace=wrap;" parent="l-1ZIi7Bs2jwUkgEGIXl-43" vertex="1">
          <mxGeometry x="20" y="5" width="240" height="205" as="geometry" />
        </mxCell>
        <mxCell id="l-1ZIi7Bs2jwUkgEGIXl-42" value="&lt;font style=&quot;font-size: 8px;&quot;&gt;display.js&lt;/font&gt;" style="text;strokeColor=none;align=center;fillColor=none;html=1;verticalAlign=middle;whiteSpace=wrap;rounded=0;" parent="l-1ZIi7Bs2jwUkgEGIXl-43" vertex="1">
          <mxGeometry width="120" height="30" as="geometry" />
        </mxCell>
        <mxCell id="l-1ZIi7Bs2jwUkgEGIXl-44" value="" style="group" parent="1" vertex="1" connectable="0">
          <mxGeometry x="280" y="190" width="260" height="210" as="geometry" />
        </mxCell>
        <mxCell id="l-1ZIi7Bs2jwUkgEGIXl-39" value="server" style="shape=folder;fontStyle=1;spacingTop=10;tabWidth=80;tabHeight=20;tabPosition=left;html=1;whiteSpace=wrap;" parent="l-1ZIi7Bs2jwUkgEGIXl-44" vertex="1">
          <mxGeometry x="20" y="5" width="240" height="205" as="geometry" />
        </mxCell>
        <mxCell id="l-1ZIi7Bs2jwUkgEGIXl-40" value="&lt;font style=&quot;font-size: 8px;&quot;&gt;index.js&lt;/font&gt;" style="text;strokeColor=none;align=center;fillColor=none;html=1;verticalAlign=middle;whiteSpace=wrap;rounded=0;" parent="l-1ZIi7Bs2jwUkgEGIXl-44" vertex="1">
          <mxGeometry width="120" height="30" as="geometry" />
        </mxCell>
        <mxCell id="l-1ZIi7Bs2jwUkgEGIXl-49" value="dispatch" style="html=1;verticalAlign=bottom;endArrow=block;edgeStyle=elbowEdgeStyle;elbow=vertical;curved=0;rounded=0;exitX=-0.006;exitY=0.261;exitDx=0;exitDy=0;exitPerimeter=0;entryX=0.994;entryY=0.5;entryDx=0;entryDy=0;entryPerimeter=0;" parent="1" source="l-1ZIi7Bs2jwUkgEGIXl-35" target="l-1ZIi7Bs2jwUkgEGIXl-39" edge="1">
          <mxGeometry width="80" relative="1" as="geometry">
            <mxPoint x="870" y="500" as="sourcePoint" />
            <mxPoint x="600" y="298" as="targetPoint" />
            <Array as="points">
              <mxPoint x="940" y="298" />
            </Array>
          </mxGeometry>
        </mxCell>
        <mxCell id="l-1ZIi7Bs2jwUkgEGIXl-50" value="dispatch" style="html=1;verticalAlign=bottom;endArrow=block;rounded=0;exitX=0;exitY=0;exitDx=0;exitDy=112.5;exitPerimeter=0;" parent="1" source="l-1ZIi7Bs2jwUkgEGIXl-37" edge="1">
          <mxGeometry width="80" relative="1" as="geometry">
            <mxPoint x="1110" y="590" as="sourcePoint" />
            <mxPoint x="540" y="330" as="targetPoint" />
          </mxGeometry>
        </mxCell>
        <mxCell id="l-1ZIi7Bs2jwUkgEGIXl-53" value="dispatch" style="html=1;verticalAlign=bottom;endArrow=block;rounded=0;exitX=-0.012;exitY=0.461;exitDx=0;exitDy=0;exitPerimeter=0;entryX=0.994;entryY=0.5;entryDx=0;entryDy=0;entryPerimeter=0;" parent="1" source="l-1ZIi7Bs2jwUkgEGIXl-29" edge="1">
          <mxGeometry width="80" relative="1" as="geometry">
            <mxPoint x="1280" y="255.5" as="sourcePoint" />
            <mxPoint x="540" y="254.5" as="targetPoint" />
          </mxGeometry>
        </mxCell>
        <mxCell id="l-1ZIi7Bs2jwUkgEGIXl-55" value="dispatch" style="html=1;verticalAlign=bottom;endArrow=block;rounded=0;" parent="1" source="l-1ZIi7Bs2jwUkgEGIXl-39" edge="1">
          <mxGeometry width="80" relative="1" as="geometry">
            <mxPoint x="1150" y="758" as="sourcePoint" />
            <mxPoint x="420" y="494" as="targetPoint" />
          </mxGeometry>
        </mxCell>
        <mxCell id="l-1ZIi7Bs2jwUkgEGIXl-56" value="Extends" style="endArrow=block;endSize=16;endFill=0;html=1;rounded=0;exitX=0;exitY=0.25;exitDx=0;exitDy=0;" parent="1" source="l-1ZIi7Bs2jwUkgEGIXl-7" target="l-1ZIi7Bs2jwUkgEGIXl-2" edge="1">
          <mxGeometry width="160" relative="1" as="geometry">
            <mxPoint x="120" y="918.23" as="sourcePoint" />
            <mxPoint x="190" y="1040" as="targetPoint" />
          </mxGeometry>
        </mxCell>
        <mxCell id="l-1ZIi7Bs2jwUkgEGIXl-62" value="" style="endArrow=block;dashed=1;endFill=0;endSize=12;html=1;rounded=0;entryX=1;entryY=0.75;entryDx=0;entryDy=0;" parent="1" source="l-1ZIi7Bs2jwUkgEGIXl-7" target="l-1ZIi7Bs2jwUkgEGIXl-3" edge="1">
          <mxGeometry width="160" relative="1" as="geometry">
            <mxPoint x="350" y="1140" as="sourcePoint" />
            <mxPoint x="510" y="1140" as="targetPoint" />
          </mxGeometry>
        </mxCell>
        <mxCell id="l-1ZIi7Bs2jwUkgEGIXl-63" value="" style="endArrow=block;dashed=1;endFill=0;endSize=12;html=1;rounded=0;entryX=0.5;entryY=1;entryDx=0;entryDy=0;exitX=0.5;exitY=0;exitDx=0;exitDy=0;" parent="1" source="l-1ZIi7Bs2jwUkgEGIXl-4" target="l-1ZIi7Bs2jwUkgEGIXl-3" edge="1">
          <mxGeometry width="160" relative="1" as="geometry">
            <mxPoint x="690" y="1024" as="sourcePoint" />
            <mxPoint x="130" y="1089" as="targetPoint" />
          </mxGeometry>
        </mxCell>
        <mxCell id="l-1ZIi7Bs2jwUkgEGIXl-64" value="" style="endArrow=block;dashed=1;endFill=0;endSize=12;html=1;rounded=0;" parent="1" target="l-1ZIi7Bs2jwUkgEGIXl-3" edge="1" source="l-1ZIi7Bs2jwUkgEGIXl-5">
          <mxGeometry width="160" relative="1" as="geometry">
            <mxPoint x="380" y="1736" as="sourcePoint" />
            <mxPoint x="340" y="1090" as="targetPoint" />
          </mxGeometry>
        </mxCell>
        <mxCell id="l-1ZIi7Bs2jwUkgEGIXl-66" value="dispatch" style="html=1;verticalAlign=bottom;endArrow=block;rounded=0;entryX=0.56;entryY=0.001;entryDx=0;entryDy=0;entryPerimeter=0;" parent="1" target="l-1ZIi7Bs2jwUkgEGIXl-5" edge="1">
          <mxGeometry width="80" relative="1" as="geometry">
            <mxPoint x="420" y="680" as="sourcePoint" />
            <mxPoint x="420" y="774" as="targetPoint" />
            <Array as="points">
              <mxPoint x="380" y="1220" />
            </Array>
          </mxGeometry>
        </mxCell>
        <mxCell id="pueXRzMUxrnxX8apcxZO-1" value="Extends" style="endArrow=block;endSize=16;endFill=0;html=1;rounded=0;exitX=0.5;exitY=0;exitDx=0;exitDy=0;entryX=1;entryY=0.75;entryDx=0;entryDy=0;" edge="1" parent="1" source="l-1ZIi7Bs2jwUkgEGIXl-4" target="l-1ZIi7Bs2jwUkgEGIXl-2">
          <mxGeometry width="160" relative="1" as="geometry">
            <mxPoint x="430" y="1530" as="sourcePoint" />
            <mxPoint x="530" y="1200" as="targetPoint" />
            <Array as="points">
              <mxPoint x="570" y="1250" />
            </Array>
          </mxGeometry>
        </mxCell>
        <mxCell id="pueXRzMUxrnxX8apcxZO-2" value="Extends" style="endArrow=block;endSize=16;endFill=0;html=1;rounded=0;entryX=1;entryY=0.5;entryDx=0;entryDy=0;" edge="1" parent="1" source="l-1ZIi7Bs2jwUkgEGIXl-5" target="l-1ZIi7Bs2jwUkgEGIXl-2">
          <mxGeometry width="160" relative="1" as="geometry">
            <mxPoint x="200" y="1750" as="sourcePoint" />
            <mxPoint x="340" y="1075" as="targetPoint" />
            <Array as="points">
              <mxPoint x="620" y="1130" />
            </Array>
          </mxGeometry>
        </mxCell>
      </root>
    </mxGraphModel>
  </diagram>
</mxfile>
